<svg height="512pt" viewBox="0 -68 512.14982 512" width="512pt" xmlns="http://www.w3.org/2000/svg"><path d="m503.542969 209.140625c1.253906 36.375-12.652344 71.640625-38.402344 97.367187-41.042969 40.703126-113.492187 60.5-209.066406 60.5-4.351563 0-8.617188 0-12.800781-.171874-89.257813-1.703126-157.097657-21.503907-196.265626-60.328126-25.746093-25.726562-39.65625-60.992187-38.398437-97.367187zm0 0" fill="#f57c00"/><path d="m477.941406 209.140625c1.257813 36.375-12.652344 71.640625-38.398437 97.367187-39.167969 38.824219-107.007813 58.625-196.269531 60.328126-89.257813-1.703126-157.097657-21.503907-196.265626-60.328126-25.746093-25.726562-39.65625-60.992187-38.398437-97.367187zm0 0" fill="#ff9801"/><path d="m503.542969 209.140625c0 6.058594-5.976563 11.863281-16.984375 17.066406-14.636719 6.496094-29.988282 11.25-45.738282 14.167969-21.972656 4.460938-44.160156 7.792969-66.472656 9.984375-39.300781 3.921875-78.777344 5.832031-118.273437 5.714844-39.496094.117187-78.972657-1.792969-118.273438-5.714844-50.769531-5.207031-90.878906-13.742187-112.210937-24.152344-5.300782-2.214843-10.070313-5.53125-13.996094-9.726562-1.824219-2.019531-2.882812-4.617188-2.984375-7.339844 0-18.601563 56.832031-34.644531 139.347656-42.238281 2.390625-.171875 4.777344-.425782 7.253907-.597656h201.726562c2.476562.171874 4.863281.425781 7.253906.597656 82.519532 7.59375 139.351563 23.636718 139.351563 42.238281zm0 0" fill="#ff5722"/><path d="m440.820312 240.375c-21.972656 4.460938-44.160156 7.792969-66.472656 9.984375-39.300781 3.921875-78.777344 5.832031-118.273437 5.714844-39.496094.117187-78.972657-1.792969-118.273438-5.714844-50.769531-5.207031-90.878906-13.742187-112.210937-24.152344-5.300782-2.214843-10.070313-5.53125-13.996094-9.726562 25.316406-5.097657 50.902344-8.773438 76.628906-11.007813 2.390625-.171875 4.78125-.425781 7.253906-.597656h201.730469c2.472657.171875 4.863281.425781 7.25.597656 71.425781 6.570313 123.648438 19.457032 136.363281 34.902344zm0 0" fill="#d84315"/><path d="m503.542969 209.140625c0 6.058594-5.976563 11.863281-16.984375 17.066406-22.78125-11.007812-66.730469-20.050781-122.367188-25.171875h-216.234375c-55.636719 5.121094-99.582031 14.164063-122.367187 25.171875-11.007813-5.203125-16.980469-11.007812-16.980469-17.066406 0-18.601563 56.832031-34.644531 139.347656-42.238281 2.390625-.171875 4.777344-.425782 7.253907-.597656h201.726562c2.476562.171874 4.863281.425781 7.253906.597656 82.519532 7.59375 139.351563 23.636718 139.351563 42.238281zm0 0" fill="#d84315"/><g fill="#c52828"><path d="m146.847656 321.953125-17.578125 12.542969c-3.171875 2.3125-7.519531 2.136718-10.496093-.425782l-48.8125-41.730468c-.914063-.902344-2.070313-1.523438-3.328126-1.789063 4.269532-3.671875 8.792969-7.679687 13.3125-12.035156 3.128907-3.054687 8.089844-3.167969 11.351563-.253906l20.308594 17.324219 28.5 24.402343c1.859375 1.597657 4.316406 2.3125 6.742187 1.964844zm0 0"/><path d="m251.808594 335.605469-10.582032 12.289062c-1.621093 1.894531-3.992187 2.988281-6.484374 2.988281-2.496094 0-4.863282-1.09375-6.484376-2.988281l-37.035156-43.265625-2.5625-2.984375c-1.902344-2.207031-4.792968-3.296875-7.679687-2.902343l17.578125-12.542969c3.59375-2.574219 8.550781-1.980469 11.4375 1.363281l18.175781 21.25 21.417969 25c.613281.738281 1.367187 1.347656 2.21875 1.792969zm0 0"/><path d="m364.960938 321.867188-2.390626 2.046874-11.859374 10.15625c-2.976563 2.5625-7.324219 2.738282-10.496094.425782l-21.761719-15.53125-26.195313-18.6875c-.257812-.171875-.429687-.339844-.683593-.339844l10.582031-12.375c2.882812-3.34375 7.84375-3.9375 11.433594-1.363281l47.957031 34.21875c1.019531.722656 2.183594 1.21875 3.414063 1.449219zm0 0"/><path d="m431.433594 331.507812c4.335937-3.390624 8.46875-7.039062 12.375-10.921874-11.476563-8.726563-22.472656-18.070313-32.9375-27.988282-1.128906-1.160156-2.589844-1.933594-4.183594-2.21875l14.164062-12.117187c3.261719-2.914063 8.222657-2.800781 11.351563.253906 10.464844 9.921875 21.460937 19.265625 32.9375 27.992187-10.039063 9.835938-21.378906 18.246094-33.707031 25zm0 0"/></g><path d="m180.894531 298.742188-5.628906 4.09375-1.367187-.167969 3.328124-2.390625c1.074219-.808594 2.335938-1.335938 3.667969-1.535156zm0 0" fill="#e64c3c"/><path d="m443.808594 320.585938c-3.90625 3.882812-8.039063 7.53125-12.375 10.921874-.085938 0-.167969.085938-.253906.171876-42.328126 23.722656-101.972657 35.328124-175.105469 35.328124-95.574219 0-168.019531-19.796874-209.066407-60.5 5.375-4.097656 12.203126-9.558593 19.625-15.957031 1.257813.265625 2.414063.886719 3.328126 1.789063l48.8125 41.730468c2.976562 2.5625 7.324218 2.738282 10.496093.425782l17.578125-12.542969c1.359375-.199219 2.648438-.726563 3.753906-1.535156l24.664063-17.582031 5.628906-4.09375h.085938c2.886719-.394532 5.777343.695312 7.679687 2.902343l2.5625 2.984375 37.035156 43.265625c1.621094 1.894531 3.988282 2.988281 6.484376 2.988281 2.492187 0 4.863281-1.09375 6.484374-2.988281l10.582032-12.289062c3.539062 2.113281 8.085937 1.351562 10.75-1.792969l16.554687-19.285156 12.460938-14.589844c.253906 0 .425781.167969.683593.339844l26.195313 18.6875 21.761719 15.53125c3.171875 2.3125 7.519531 2.136718 10.496094-.425782l11.859374-10.15625 2.390626-2.046874c2.523437.507812 5.140624-.183594 7.082031-1.878907l34.558593-29.609375h.085938c1.59375.285156 3.054688 1.058594 4.183594 2.21875 10.464844 9.917969 21.460937 19.261719 32.9375 27.988282zm0 0" fill="#f44335"/><path d="m291.574219 299.9375-12.460938 14.589844-8.445312-.9375 10.152343-11.945313c2.679688-3.136719 7.238282-3.859375 10.753907-1.707031zm0 0" fill="#e64c3c"/><path d="m406.601562 290.378906-34.558593 29.609375c-1.941407 1.695313-4.558594 2.386719-7.082031 1.878907l34.558593-29.527344c1.910157-1.75 4.542969-2.480469 7.082031-1.960938zm0 0" fill="#e64c3c"/><path d="m374.347656 250.359375c-39.300781 3.921875-78.777344 5.832031-118.273437 5.714844-3.667969 0-7.253907 0-10.835938-.085938h-5.121093c-36.863282-.425781-71.59375-2.386719-102.316407-5.628906l10.15625-49.324219h.085938l6.058593-29.355468 1.109376-5.375 17.152343-82.6875 1.707031-8.191407c7-34.027343 34.308594-60.183593 68.605469-65.707031 4.425781-.757812 8.910157-1.128906 13.398438-1.109375 39.746093-.0625 74.035156 27.875 82.003906 66.816406l1.707031 8.191407 17.152344 82.6875 1.109375 5.375 6.058594 29.355468h.085937zm0 0" fill="#ffb301"/><path d="m347.550781 250.359375c-30.71875 3.242187-65.449219 5.203125-102.3125 5.628906h-5.121093c-36.863282-.425781-71.59375-2.386719-102.316407-5.628906l10.15625-49.324219h.085938l6.058593-29.355468 1.109376-5.375 17.152343-82.6875 1.707031-8.191407c7-34.027343 34.308594-60.183593 68.605469-65.707031 34.324219 5.46875 61.660157 31.648438 68.609375 65.707031l1.707032 8.191407 17.152343 82.6875 1.109375 5.375 6.058594 29.355468h.085938zm0 0" fill="#fec108"/><path d="m244.214844 93.769531c-3.757813.171875-7.765625.171875-11.863282.171875-20.507812.347656-41.007812-1.082031-61.269531-4.265625l1.28125-6.058593c10.410157 4.351562 31.144531 9.386718 71.851563 10.152343zm0 0" fill="#2e7d32"/><path d="m351.820312 141.8125-26.453124-13.226562-8.023438-38.910157c7.683594-1.171875 15.214844-3.203125 22.441406-6.058593zm0 0" fill="#2e7d32"/><path d="m325.367188 128.585938-13.144532-6.570313c-3.011718-1.539063-6.65625-1.101563-9.214844 1.109375l-4.609374 3.839844-36.863282 30.722656c-3.164062 2.632812-7.757812 2.632812-10.921875 0l-6.398437-5.292969-35.074219-29.269531c-2.558594-2.210938-6.203125-2.648438-9.214844-1.109375l-39.59375 19.796875 2.730469-13.226562 8.019531-38.910157c20.261719 3.183594 40.761719 4.613281 61.269531 4.265625 4.097657 0 8.105469 0 11.863282-.171875 3.753906.171875 7.765625.171875 11.859375.171875 20.507812.347656 41.007812-1.082031 61.269531-4.265625zm0 0" fill="#4caf50"/><path d="m317.34375 89.675781c-20.261719 3.183594-40.761719 4.613281-61.269531 4.265625-4.09375 0-8.105469 0-11.859375-.171875 40.703125-.765625 61.4375-5.800781 71.847656-10.152343zm0 0" fill="#2e7d32"/><path d="m328.097656 141.8125-29.699218-14.847656 4.609374-3.839844c2.558594-2.210938 6.203126-2.648438 9.214844-1.109375l13.144532 6.570313zm0 0" fill="#2e7d32"/><path d="m358.046875 171.679688c-6.035156 3.328124-12.492187 5.828124-19.199219 7.425781-27.21875 5.742187-54.957031 8.660156-82.773437 8.703125 0 0-75.007813 0-101.972657-16.128906l4.609376-22.269532 1.535156-7.597656h.085937l39.59375-19.796875c3.011719-1.539063 6.65625-1.101563 9.214844 1.109375l41.472656 34.5625c3.164063 2.632812 7.757813 2.632812 10.921875 0l41.472656-34.5625c2.558594-2.210938 6.203126-2.648438 9.214844-1.109375l39.597656 19.796875h.082032zm0 0" fill="#c52828"/><path d="m338.847656 179.105469c-27.21875 5.742187-54.957031 8.660156-82.773437 8.703125 0 0-75.007813 0-101.972657-16.128906l4.609376-22.269532 23.722656-11.863281c2.984375-1.535156 11.347656-20.222656 13.90625-18.003906l51.203125 34.132812c3.15625 2.644531-3.160157 11.179688 0 8.53125l37.972656-23.550781c2.558594-2.210938 6.203125-2.648438 9.214844-1.109375l39.59375 19.796875h.085937zm0 0" fill="#f44335"/><path d="m364.796875 158.386719-.851563-.070313-17.527343-84.632812c-8.964844-42.785156-46.628907-73.472656-90.34375-73.6093752-43.714844.1367192-81.378907 30.8242192-90.34375 73.6093752l-17.527344 84.640625-.996094.078125c-67.132812 6.179687-147.1328122 20.019531-147.1328122 50.738281-1.2656248 38.660156 13.5703122 76.113281 40.9609372 103.425781 42.101563 41.785156 114.464844 62.976563 215.039063 62.976563s172.9375-21.191407 215.039062-62.960938c27.398438-27.316406 42.230469-64.773437 40.960938-103.441406 0-30.71875-80-44.558594-147.277344-50.753906zm99.371094 136.53125c-7.261719-5.742188-16.425781-13.429688-26.070313-22.648438-6.328125-6.046875-16.222656-6.292969-22.84375-.5625l-48.722656 41.8125-47.941406-34.234375c-7.179688-5.1875-17.144532-3.980468-22.878906 2.773438l-39.636719 46.234375-39.644531-46.25c-5.734376-6.75-15.691407-7.957031-22.871094-2.773438l-47.9375 34.242188-48.726563-41.8125c-6.621093-5.734375-16.519531-5.488281-22.84375.570312-9.644531 9.21875-18.773437 16.90625-26.070312 22.640625-15.664063-17.519531-25.765625-39.300781-29.011719-62.574218.953125.503906 1.859375 1.015624 2.890625 1.492187 22.035156 10.761719 62.898437 19.628906 115.074219 24.976563 39.589844 3.953124 79.355468 5.890624 119.140625 5.804687 39.785156.101563 79.550781-1.820313 119.144531-5.761719 52.179688-5.351562 93.011719-14.214844 114.984375-24.925781 1.058594-.496094 2.007813-1.023437 2.988281-1.542969-3.253906 23.273438-13.355468 45.054688-29.023437 62.574219zm-208.09375 63.558593c-88.925781 0-156.304688-17.757812-195.863281-51.449218 7.3125-5.855469 16.210937-13.390625 25.597656-22.324219l48.726562 41.8125c5.960938 5.109375 14.636719 5.496094 21.027344.933594l47.9375-34.246094 39.636719 46.242187c3.242187 3.785157 7.980469 5.964844 12.964843 5.964844 4.984376 0 9.71875-2.179687 12.960938-5.964844l39.636719-46.242187 47.941406 34.246094c6.386719 4.5625 15.066406 4.175781 21.027344-.933594l48.636719-41.8125c9.386718 8.976563 18.3125 16.53125 25.601562 22.382813-39.507812 33.632812-106.898438 51.390624-195.832031 51.390624zm-77.3125-263.683593c25.332031 5.878906 51.320312 8.460937 77.3125 7.683593 25.996093.761719 51.980469-1.832031 77.3125-7.722656l6.527343 31.570313-23.839843-11.902344c-6.0625-3.023437-13.339844-2.175781-18.542969 2.160156l-41.457031 34.53125-41.453125-34.558593c-5.207032-4.335938-12.484375-5.183594-18.542969-2.160157l-23.84375 11.898438zm77.3125 152.75c-37.699219 0-74.683594-1.707031-107.980469-4.832031l7.988281-38.816407c.132813-.371093.238281-.75.316407-1.136719l3.914062-18.902343c33.136719 12.289062 92.9375 12.484375 95.761719 12.484375s62.867187-.195313 95.769531-12.449219l3.910156 18.867187c.078125.378907.183594.753907.3125 1.117188l7.988282 38.828125c-33.289063 3.132813-70.269532 4.839844-107.980469 4.839844zm92.261719-80.574219c-23.628907 9.992188-73.589844 12.304688-92.261719 12.304688s-68.34375-2.300782-92.253907-12.335938l4.011719-19.371094 35.839844-17.921875 41.445313 34.535157c6.332031 5.273437 15.523437 5.273437 21.855468 0l41.453125-34.535157 35.839844 17.921875zm32.792968 74.027344-6.246094-30.328125c29.484376 2.648437 58.683594 7.847656 87.273438 15.539062-26.542969 7.21875-53.648438 12.164063-81.027344 14.789063zm-250.109375 0c-27.375-2.625-54.480469-7.574219-81.015625-14.789063 28.582032-7.710937 57.777344-12.925781 87.261719-15.582031zm363.988281-31.855469c0 .855469-1.707031 3.78125-8.78125 7.679687-23.515624-10.238281-63.648437-18.5-115.019531-23.585937l-3.609375-17.414063c104.550782 10.050782 127.410156 29.054688 127.410156 33.320313zm-238.933593-192c35.628906.109375 66.324219 25.125 73.625 60l.1875.910156c-24.148438 5.832031-48.988281 8.308594-73.8125 7.359375-24.835938.949219-49.6875-1.523437-73.847657-7.359375l.1875-.910156c7.304688-34.886719 38.019532-59.90625 73.660157-60zm-111.523438 158.660156-3.597656 17.382813c-51.054687 5.042968-91.386719 13.339844-115.03125 23.636718-7.074219-3.882812-8.78125-6.824218-8.78125-7.679687 0-4.265625 22.886719-23.285156 127.410156-33.339844zm0 0"/><path d="m221.667969 68.179688h.273437c4.53125-.070313 8.246094-3.613282 8.535156-8.132813.09375-1.46875 1.363282-8.78125 17.066407-8.78125 4.710937 0 8.53125-3.820313 8.53125-8.53125 0-4.714844-3.820313-8.535156-8.53125-8.535156-27 0-34.136719 16.742187-34.136719 25.601562.011719 4.578125 3.683594 8.304688 8.261719 8.378907zm0 0"/></svg>